<?xml version="1.0" encoding="utf-8"?>
<!-- Generator: Adobe Illustrator 16.0.0, SVG Export Plug-In . SVG Version: 6.00 Build 0)  -->
<!DOCTYPE svg PUBLIC "-//W3C//DTD SVG 1.1//EN" "http://www.w3.org/Graphics/SVG/1.1/DTD/svg11.dtd">
<svg version="1.1" id="Layer_1" xmlns="http://www.w3.org/2000/svg" xmlns:xlink="http://www.w3.org/1999/xlink" x="0px" y="0px"
	 width="327px" height="394px" viewBox="0 0 327 394" enable-background="new 0 0 327 394" xml:space="preserve">
<g>
	<g>
		<path fill="#FFFFFF" d="M160,1c55.666,0,111.334,0,167,0c0,131,0,262,0,393c-75,0-150,0-225,0c1.538-0.525,3.039-1.285,4.62-1.531
			c4.265-0.662,8.385-1.652,12.495-3.086c19.097-6.659,33.125-19.232,43.358-36.38c6.096-10.215,8.624-21.53,9.567-33.183
			c0.518-6.405,0.092-12.888,0.092-19.482c-0.982-0.15-1.613-0.333-2.244-0.332c-22.813,0.04-45.627,0.097-68.441,0.162
			c-0.132,0.001-0.276,0.153-0.392,0.26c-0.122,0.111-0.216,0.253-0.535,0.638c0.428,7.645-0.283,15.571,0.43,23.974
			c14.507,0,28.575,0,42.836,0c0.485,3.943-0.851,7.039-1.934,10.101c-3.318,9.387-9.549,16.637-17.195,22.794
			c-13.366,10.764-28.866,13.27-45.162,10.483c-10.39-1.777-19.702-6.833-27.828-13.71c-8.069-6.829-14.879-14.572-19.151-24.497
			c-4.456-10.352-5.862-21.093-5.21-32.141c0.572-9.697,3.096-18.951,8.003-27.442c9.265-16.031,22.738-26.879,40.617-31.649
			c11.92-3.18,24.014-3.113,35.918,0.845c11.522,3.831,20.924,10.749,29.048,19.586c1.766,1.921,3.479,3.893,5.409,6.057
			c6.279-6.034,12.241-11.763,18.565-17.84c-3.224-3.298-6.049-6.299-8.992-9.18c-6.806-6.661-14.3-12.372-22.872-16.639
			c-13.403-6.671-27.56-9.275-42.499-9.058c-29.048,0.424-52.221,12.434-70.543,34.569c-9.546,11.534-15.141,24.84-17.921,39.439
			C1.767,288.187,1.35,289.587,1,291C1,194.333,1,97.667,1,1c7.333,0,14.667,0,22,0c-2.396,1.334-1.849,3.634-1.849,5.729
			c-0.01,59.302-0.012,118.604-0.015,177.906c0,1.799,0,3.598,0,5.281c4.066,1.134,23.041,1.234,27.946,0.159
			c0-1.525,0-3.156,0-4.787c0.001-22.487,0.179-44.979-0.127-67.462c-0.074-5.393,2.538-8.146,6.683-10.911
			c1.336,1.475,2.606,2.759,3.746,4.15c7.694,9.395,15.37,18.804,23.035,28.222c13.123,16.125,26.274,32.228,39.3,48.43
			c1.727,2.148,3.437,3.193,6.263,3.15c10.326-0.156,20.655-0.057,30.982-0.083c0.901-0.002,1.803-0.224,3.19-0.408
			c-6.029-7.339-11.656-14.25-17.351-21.105c-5.743-6.912-11.554-13.767-17.332-20.649c-5.667-6.751-11.336-13.502-16.995-20.26
			c-5.767-6.888-11.604-13.717-17.259-20.694c-5.593-6.898-11.966-13.196-17.056-20.913c1.748-1.791,3.104-3.22,4.501-4.606
			c20.333-20.175,40.676-40.34,61.008-60.516c5.674-5.631,11.324-11.286,16.982-16.933C159.675,3.679,161.185,2.827,160,1z
			 M326.088,94.619c0.348-7.222-0.234-15.359-2.425-23.253c-2.497-8.996-6.193-17.489-11.414-25.322
			c-17.3-25.954-41.219-41.082-72.42-43.731c-13.5-1.146-26.908,0.546-39.715,5.314c-20.479,7.626-36.509,20.81-48.461,39.097
			c-5.249,8.03-8.93,16.751-11.271,25.928c-2.14,8.386-2.338,17.071-2.216,25.765c0.146,10.433,2.046,20.521,5.667,30.185
			c8.671,23.137,25.136,39.352,46.961,50.053c17.618,8.64,36.353,11.182,55.901,8.145c20.623-3.204,38.369-12.039,52.965-26.747
			C317.274,142.302,326.94,121.016,326.088,94.619z M318.207,392.314c-25.932-61.588-51.705-122.802-77.555-184.196
			c-2.973,6.554-75.588,179.773-75.895,184.325c1.434,0.096,2.869,0.272,4.306,0.275c10.307,0.022,20.614-0.032,30.921,0.016
			c30.984,0.144,61.968,0.364,92.951,0.459c7.484,0.023,14.971-0.318,22.455-0.515C316.164,392.659,316.934,392.484,318.207,392.314
			z"/>
		<path fill-rule="evenodd" clip-rule="evenodd" d="M1,291c0.35-1.413,0.767-2.813,1.039-4.242
			c2.78-14.6,8.375-27.905,17.921-39.439c18.322-22.136,41.495-34.146,70.543-34.569c14.939-0.218,29.095,2.387,42.499,9.058
			c8.572,4.267,16.066,9.978,22.872,16.639c2.943,2.881,5.769,5.882,8.992,9.18c-6.324,6.077-12.286,11.806-18.565,17.84
			c-1.93-2.164-3.643-4.136-5.409-6.057c-8.124-8.837-17.525-15.755-29.048-19.586c-11.904-3.958-23.998-4.024-35.918-0.845
			c-17.879,4.771-31.352,15.618-40.617,31.649c-4.908,8.491-7.432,17.745-8.003,27.442c-0.652,11.048,0.754,21.789,5.21,32.141
			c4.272,9.925,11.082,17.668,19.151,24.497c8.126,6.877,17.438,11.933,27.828,13.71c16.296,2.786,31.796,0.28,45.162-10.483
			c7.646-6.157,13.877-13.407,17.195-22.794c1.083-3.062,2.418-6.157,1.934-10.101c-14.261,0-28.33,0-42.836,0
			c-0.712-8.402-0.002-16.329-0.43-23.974c0.319-0.385,0.413-0.526,0.535-0.638c0.116-0.106,0.26-0.259,0.392-0.26
			c22.813-0.065,45.627-0.122,68.441-0.162c0.631-0.001,1.262,0.182,2.244,0.332c0,6.595,0.426,13.077-0.092,19.482
			c-0.943,11.652-3.471,22.968-9.567,33.183c-10.233,17.147-24.261,29.721-43.358,36.38c-4.11,1.434-8.229,2.424-12.495,3.086
			c-1.581,0.246-3.082,1.006-4.62,1.531c-8,0-16,0-24,0c-1.161-0.505-2.278-1.215-3.491-1.476c-3.399-0.73-6.959-0.899-10.241-1.956
			c-15.512-4.994-28.829-13.585-39.818-25.587C15.031,354.695,7.752,343.1,4.287,329.386C3.241,325.244,2.098,321.128,1,317
			C1,308.333,1,299.667,1,291z"/>
		<path fill-rule="evenodd" clip-rule="evenodd" d="M160,1c1.185,1.827-0.325,2.679-1.347,3.699
			c-5.658,5.646-11.308,11.302-16.982,16.933c-20.333,20.176-40.675,40.341-61.008,60.516c-1.397,1.387-2.753,2.815-4.501,4.606
			c5.09,7.717,11.463,14.015,17.056,20.913c5.656,6.978,11.493,13.807,17.259,20.694c5.659,6.758,11.328,13.509,16.995,20.26
			c5.778,6.883,11.589,13.737,17.332,20.649c5.695,6.855,11.322,13.767,17.351,21.105c-1.387,0.185-2.289,0.406-3.19,0.408
			c-10.328,0.026-20.657-0.073-30.982,0.083c-2.826,0.043-4.536-1.002-6.263-3.15c-13.026-16.202-26.177-32.305-39.3-48.43
			c-7.665-9.418-15.341-18.827-23.035-28.222c-1.14-1.392-2.409-2.676-3.746-4.15c-4.145,2.766-6.757,5.519-6.683,10.911
			c0.306,22.483,0.128,44.975,0.127,67.462c0,1.631,0,3.262,0,4.787c-4.905,1.075-23.88,0.975-27.946-0.159c0-1.684,0-3.482,0-5.281
			c0.003-59.302,0.005-118.604,0.015-177.906C21.151,4.634,20.604,2.334,23,1c8,0,16,0,24,0c2.616,1.121,2.073,3.447,2.074,5.533
			c0.011,21.12,0.001,42.241,0.018,63.361c0.001,1.726,0.148,3.45,0.275,6.205c1.837-1.47,2.896-2.157,3.763-3.035
			C66.77,59.233,80.387,45.379,94.005,31.526C104.006,21.354,114.002,11.176,124,1C136,1,148,1,160,1z"/>
		<path fill-rule="evenodd" clip-rule="evenodd" fill="#FFFFFF" d="M124,1c-9.998,10.176-19.994,20.354-29.995,30.526
			C80.387,45.379,66.77,59.233,53.129,73.064c-0.866,0.878-1.926,1.565-3.763,3.035c-0.126-2.755-0.273-4.479-0.275-6.205
			c-0.016-21.12-0.006-42.241-0.018-63.361C49.073,4.447,49.616,2.121,47,1C72.667,1,98.333,1,124,1z"/>
		<path fill-rule="evenodd" clip-rule="evenodd" fill="#FFFFFF" d="M1,317c1.098,4.128,2.241,8.244,3.287,12.386
			c3.465,13.714,10.744,25.31,20.162,35.596c10.99,12.002,24.307,20.593,39.818,25.587c3.282,1.057,6.842,1.226,10.241,1.956
			c1.213,0.261,2.331,0.971,3.491,1.476c-25.667,0-51.333,0-77,0C1,368.333,1,342.667,1,317z"/>
		<path fill-rule="evenodd" clip-rule="evenodd" d="M326.088,94.619c0.853,26.396-8.813,47.683-26.428,65.432
			c-14.596,14.708-32.342,23.543-52.965,26.747c-19.549,3.037-38.283,0.495-55.901-8.145c-21.825-10.701-38.29-26.916-46.961-50.053
			c-3.622-9.664-5.521-19.752-5.667-30.185c-0.122-8.693,0.077-17.379,2.216-25.765c2.342-9.177,6.022-17.897,11.271-25.928
			c11.953-18.287,27.982-31.471,48.461-39.097c12.807-4.769,26.215-6.461,39.715-5.314c31.201,2.649,55.12,17.777,72.42,43.731
			c5.221,7.833,8.917,16.326,11.414,25.322C325.854,79.26,326.436,87.397,326.088,94.619z M297.678,83.159
			c1.465-6.045-5.891-22.458-12.879-30.963c-11.771-14.326-26.576-22.949-45.032-24.837c-43.621-4.461-70.94,30.103-73.46,55.775
			c1.168,0.291,2.385,0.78,3.633,0.878C183.099,85.041,294.169,84.258,297.678,83.159z M167.258,108.937
			c0.393,21.679,28.272,52.136,59.705,54.056c42.817,2.615,68.699-32.09,70.641-54.243c-1.076-0.186-2.172-0.505-3.278-0.545
			C270.272,107.334,171.893,107.865,167.258,108.937z"/>
		<path fill-rule="evenodd" clip-rule="evenodd" d="M318.207,392.314c-1.273,0.17-2.043,0.345-2.816,0.364
			c-7.484,0.196-14.971,0.538-22.455,0.515c-30.983-0.095-61.967-0.315-92.951-0.459c-10.307-0.048-20.614,0.007-30.921-0.016
			c-1.437-0.003-2.872-0.18-4.306-0.275c0.307-4.552,72.922-177.771,75.895-184.325
			C266.502,269.513,292.275,330.727,318.207,392.314z M202.984,368.239c1.814,0.268,2.922,0.571,4.029,0.572
			c23.325,0.027,46.65,0.03,69.975-0.007c1.051-0.002,2.1-0.429,3.768-0.792c-13.65-30.882-26.223-61.654-40.248-92.061
			C227.387,306.33,215.627,337.057,202.984,368.239z"/>
		<path fill-rule="evenodd" clip-rule="evenodd" fill="#FFFFFF" d="M297.678,83.159c-3.509,1.099-114.579,1.882-127.738,0.854
			c-1.248-0.098-2.465-0.587-3.633-0.878c2.52-25.673,29.839-60.236,73.46-55.775c18.456,1.888,33.261,10.511,45.032,24.837
			C291.787,60.701,299.143,77.114,297.678,83.159z"/>
		<path fill-rule="evenodd" clip-rule="evenodd" fill="#FFFFFF" d="M167.258,108.937c4.635-1.071,103.015-1.603,127.067-0.732
			c1.106,0.04,2.202,0.359,3.278,0.545c-1.941,22.153-27.823,56.858-70.641,54.243C195.53,161.072,167.65,130.615,167.258,108.937z"
			/>
		<path fill-rule="evenodd" clip-rule="evenodd" fill="#FFFFFF" d="M202.984,368.239c12.643-31.183,24.402-61.909,37.523-92.287
			c14.025,30.406,26.598,61.179,40.248,92.061c-1.668,0.363-2.717,0.79-3.768,0.792c-23.324,0.037-46.649,0.034-69.975,0.007
			C205.906,368.811,204.799,368.507,202.984,368.239z"/>
	</g>
</g>
</svg>
