<?xml version="1.0" encoding="utf-8"?>
<!-- Generator: Adobe Illustrator 16.0.0, SVG Export Plug-In . SVG Version: 6.00 Build 0)  -->
<!DOCTYPE svg PUBLIC "-//W3C//DTD SVG 1.1//EN" "http://www.w3.org/Graphics/SVG/1.1/DTD/svg11.dtd">
<svg version="1.1" id="Layer_1" xmlns="http://www.w3.org/2000/svg" xmlns:xlink="http://www.w3.org/1999/xlink" x="0px" y="0px"
	 width="504px" height="252px" viewBox="0 0 504 252" enable-background="new 0 0 504 252" xml:space="preserve">
<path fill="#231F20" d="M267.389,154.066c7.748,6.738,16.488,10.107,26.221,10.107c11.003,0,20.395-3.792,28.174-11.377
	c7.748-7.552,11.621-16.748,11.621-27.588c0-10.774-3.857-20.003-11.572-27.686C314.15,89.842,304.938,86,294.195,86
	c-10.872,0-20.182,3.809-27.93,11.426c-7.779,7.617-11.67,16.732-11.67,27.344C254.596,136.847,258.86,146.612,267.389,154.066
	L267.389,154.066z M274.176,104.89c5.404-5.464,12.028-8.196,19.873-8.196c7.878,0,14.486,2.732,19.824,8.196
	c5.371,5.432,8.057,12.164,8.057,20.197c0,7.937-2.718,14.669-8.154,20.197c-5.436,5.465-12.109,8.196-20.02,8.196
	c-7.291,0-13.721-2.684-19.287-8.05c-5.599-5.367-8.398-12.213-8.398-20.539C266.07,116.956,268.772,110.289,274.176,104.89
	L274.176,104.89z"/>
<path fill="#231F20" d="M214.029,134.742h18.799c-0.521,5.293-3.011,9.839-7.471,13.638c-4.46,3.767-9.489,5.649-15.088,5.649
	c-6.576,0-12.679-2.522-18.311-7.568c-6.023-5.436-9.033-12.354-9.033-20.752c0-8.138,2.702-14.908,8.105-20.312
	c5.403-5.501,12.093-8.252,20.068-8.252c8.887,0,16.422,4.118,22.607,12.354l8.105-7.764c-4.72-5.393-9.521-9.288-14.404-11.687
	c-5.111-2.397-10.612-3.597-16.504-3.597c-10.97,0-20.281,3.825-27.93,11.475c-7.65,7.617-11.475,16.895-11.475,27.832
	c0,10.71,3.76,19.89,11.279,27.539c7.52,7.617,16.553,11.426,27.1,11.426c10.807,0,19.71-3.938,26.709-11.816
	c3.092-3.516,5.289-7.291,6.592-11.328c1.334-4.361,2.002-9.375,2.002-15.039v-2.49h-31.152V134.742z"/>
<path fill="#231F20" d="M260.355,120.141h66.032v10.666h-66.032V120.141z"/>
</svg>
