<?xml version="1.0" encoding="utf-8"?>
<!-- Generator: Adobe Illustrator 13.0.0, SVG Export Plug-In . SVG Version: 6.00 Build 14948)  -->
<!DOCTYPE svg PUBLIC "-//W3C//DTD SVG 1.1//EN" "http://www.w3.org/Graphics/SVG/1.1/DTD/svg11.dtd">
<svg version="1.1" id="YouTube" xmlns="http://www.w3.org/2000/svg" xmlns:xlink="http://www.w3.org/1999/xlink" x="0px" y="0px"
	 width="30px" height="30px" viewBox="0 0 30 30" enable-background="new 0 0 30 30" xml:space="preserve">
<g id="_x5B____x3E___x5D_">
	<g>
		<path fill="#FFFFFF" d="M29.699,8.539c0,0-0.293-2.067-1.191-2.979c-1.141-1.194-2.42-1.2-3.006-1.271
			C21.303,3.986,15,3.986,15,3.986s-6.304,0-10.502,0.304C3.912,4.36,2.633,4.366,1.492,5.561C0.592,6.472,0.3,8.539,0.3,8.539
			S0,10.559,0,12.986v3c0,2.428,0.3,4.539,0.3,4.539s0.292,2.066,1.192,2.978c1.141,1.195,2.64,1.158,3.308,1.283
			c2.4,0.229,10.2,0.2,10.2,0.2s6.303,0.091,10.502-0.213c0.586-0.069,1.865-0.075,3.006-1.271c0.898-0.91,1.191-2.978,1.191-2.978
			S30,18.415,30,15.988v-3.001C30,10.559,29.699,8.539,29.699,8.539z M11,18.493v-8l8,4L11,18.493z"/>
	</g>
</g>
</svg>
